<svg viewBox="0 0 432 57.398" id="brand-pbp-logo" xmlns="http://www.w3.org/2000/svg" fit="" height="100%" width="100%" preserveAspectRatio="xMidYMid meet" focusable="false"><path d="M93.022 45.303c-6.668 0-9.546-3.4-10.197-4.314v15.49H74.98V13.075h7.45l.132 4.12c.327-.46 3.792-5.23 11.374-5.23 6.54 0 14.71 4.442 14.71 16.8 0 8.24-5.426 16.54-15.624 16.54m-1.308-26.87c-5.033 0-9.02 3.988-9.02 10.33 0 6.21 3.856 10.067 8.953 10.067 5.295 0 8.894-4.12 8.894-10.003.002-6.6-3.597-10.392-8.826-10.392M133.62 44.322l-.197-3.53c-.848.984-3.92 4.316-10.327 4.316-5.754 0-11.05-3.074-11.05-9.936 0-3.01 1.048-5.034 2.552-6.537 3.203-3.205 7.45-3.858 11.176-3.858h7.324v-.393c0-4.643-2.942-6.212-6.866-6.212-5.03 0-8.432 3.53-8.89 3.99l-4.183-4.447c.26-.325 4.574-5.754 13.532-5.754 4.835 0 8.234 1.245 10.59 3.597 3.202 3.203 3.397 7.063 3.397 12.358V44.32h-7.06zm-5.1-14.185c-3.53 0-8.824.065-8.824 4.837 0 2.94 2.288 4.314 5.164 4.314s4.773-.914 6.08-2.156c1.44-1.31 2.027-3.01 2.158-4.903v-2.093h-4.577zM162.19 48.376c-1.698 4.185-4.64 9.022-12.027 9.022-3.138 0-5.165-.98-5.95-1.503l2.224-5.69c.588.262 1.764.656 3.007.656 2.81 0 4.117-1.37 5.227-3.595.2-.393 1.18-2.68 1.375-3.14l-13.402-31.053h8.37l8.956 22.23 8.955-22.23h8.105l-14.84 35.304z" fill="#4c4e50"></path><path d="M198.998 45.24c-7.124 0-10.264-4.185-10.59-4.643l-.195 3.727h-7.257V0h7.844v16.93c.394-.522 3.857-4.968 11.18-4.968 6.47 0 14.642 4.447 14.642 16.737 0 8.303-5.426 16.54-15.624 16.54M197.69 18.5c-5.033 0-9.02 3.858-9.02 10.265 0 6.212 3.856 10.065 8.953 10.065 5.23 0 8.894-4.052 8.894-10.065 0-6.54-3.598-10.264-8.827-10.264M235.35 48.376c-1.7 4.185-4.642 9.022-12.03 9.022-3.137 0-5.166-.98-5.95-1.503l2.224-5.69c.59.262 1.764.656 3.007.656 2.812 0 4.12-1.37 5.232-3.595.193-.393 1.175-2.68 1.373-3.14l-13.4-31.053h8.366l8.957 22.23 8.957-22.23h8.105l-14.84 35.304z" fill="#72be44"></path><path d="M272.156 45.303c-6.667 0-9.546-3.4-10.197-4.314v15.49h-7.846V13.075h7.45l.132 4.12c.327-.46 3.792-5.23 11.376-5.23 6.533 0 14.706 4.442 14.706 16.8 0 8.24-5.427 16.54-15.622 16.54m-1.308-26.87c-5.035 0-9.02 3.988-9.02 10.33 0 6.21 3.856 10.067 8.954 10.067 5.297 0 8.892-4.12 8.892-10.003 0-6.6-3.595-10.392-8.826-10.392M314.52 44.324V26.737c0-2.745-.196-5.1-1.897-6.47-.98-.918-2.353-1.507-4.575-1.507-1.635 0-3.728.59-5.23 2.092-2.156 2.158-2.223 5.623-2.223 9.415v14.056h-7.845V.003h7.845v16.536c1.114-1.308 4.183-4.577 10.133-4.577 3.072 0 6.016.784 8.567 3.332 2.676 2.747 3.07 6.604 3.07 10.133v18.895h-7.845zM344.134 45.303c-11.96 0-17.192-8.693-17.192-16.67 0-7.975 5.23-16.672 17.192-16.672 11.897 0 17.128 8.698 17.128 16.673 0 7.977-5.23 16.67-17.128 16.67m6.21-24.514c-1.503-1.504-3.592-2.355-6.21-2.355-2.68 0-4.773.85-6.212 2.354-1.764 1.828-2.875 4.507-2.875 7.843 0 3.332 1.112 6.015 2.875 7.844 1.44 1.505 3.597 2.352 6.212 2.352 2.618 0 4.707-.848 6.21-2.353 1.764-1.83 2.81-4.512 2.81-7.844.002-3.4-1.046-6.08-2.81-7.844M388 44.324V26.737c0-2.745-.192-5.1-1.894-6.47-.98-.918-2.355-1.507-4.575-1.507-1.636 0-3.727.59-5.23 2.092-2.156 2.158-2.224 5.623-2.224 9.415v14.056h-7.842v-31.25h7.452l.132 3.922c.326-.39 3.594-5.032 10.455-5.032 3.076 0 5.952.784 8.502 3.332 2.68 2.747 3.07 6.604 3.07 10.133v18.895H388zM408.467 31.12c0 3.462 2.55 7.974 8.757 7.974 5.427 0 8.567-3.138 9.48-4.118l4.382 4.05c-2.092 2.42-6.474 6.28-14.122 6.28-11.244 0-16.537-7.716-16.537-16.542 0-8.695 5.49-16.803 16.408-16.803 2.81 0 7.06.59 10.46 3.988 4.183 4.185 4.706 9.546 4.706 15.17h-23.533zm8.17-13.208c-6.21 0-8.04 5.754-8.04 7.582h15.69c0-2.22-1.636-7.582-7.65-7.582" fill="#4c4e50"></path><path d="M4.36 2.783S0 2.78.004 7.133L.002 13.23S0 17.586 4.36 17.588h6.09s4.354.002 4.354-4.358V7.132s0-4.347-4.35-4.35H4.36zM4.354 21.2S0 21.202 0 25.554v6.094S-.002 36 4.354 36h6.098s4.352 0 4.352-4.35v-6.097s0-4.354-4.352-4.354H4.354zM4.354 39.606S0 39.61 0 43.966v6.098s0 4.345 4.354 4.35l6.093-.005s4.354.003 4.352-4.35l.003-6.093s0-4.356-4.356-4.36H4.354zM22.78 2.785s-4.355 0-4.352 4.35l-.002 6.095s0 4.356 4.352 4.356l6.094.002s4.354-.002 4.354-4.358V7.132s.003-4.35-4.354-4.347H22.78zM22.777 21.203s-4.352-.002-4.352 4.358v6.093s-.002 4.35 4.35 4.352L28.868 36s4.356.005 4.354-4.348l.002-6.096s0-4.354-4.354-4.358l-6.093.005zM22.773 39.61s-4.35 0-4.354 4.36v6.093s0 4.352 4.353 4.352h6.095s4.354 0 4.354-4.352l.002-6.098s0-4.356-4.356-4.36l-6.095.004zM41.198 2.785s-4.354 0-4.354 4.35v6.096s-.002 4.357 4.354 4.36l6.09-.003s4.36.004 4.358-4.356l.002-6.097s0-4.35-4.354-4.35l-6.096.002zM41.197 21.195s-4.357.004-4.357 4.354v6.095S36.84 36 41.195 36h6.095s4.352.003 4.352-4.35l.003-6.1s.002-4.353-4.352-4.353l-6.096-.002zM41.197 39.61s-4.357 0-4.357 4.36l-.002 6.093s.002 4.352 4.354 4.352h6.095s4.357 0 4.352-4.35l.003-6.095s0-4.362-4.355-4.362l-6.09.003z" fill="#72be44"></path></svg>